<svg width="32" height="32" viewBox="0 0 32 32" fill="none" xmlns="http://www.w3.org/2000/svg">
<path d="M22.6213 11.2821V7.86333C22.6213 4.99153 20.2764 2.66675 17.3799 2.66675H14.6213C11.7247 2.66675 9.37988 4.99153 9.37988 7.86333V11.2821L11.5868 11.0086V7.86333C11.5868 6.2223 12.9661 4.85478 14.6213 4.85478H17.3799C19.0351 4.85478 20.4144 6.2223 20.4144 7.86333V11.1454L22.6213 11.2821Z" fill="#1C252E"/>
<path opacity="0.4" fill-rule="evenodd" clip-rule="evenodd" d="M27.7241 14.7009C27.5862 12.9231 26.2069 11.5556 24.4138 11.4188C23.8621 11.4188 23.1724 11.2821 22.6207 11.2821L20.4138 11.1453C18.8966 11.0086 17.3793 10.8718 16 10.8718C14.6207 10.8718 13.1034 10.8718 11.5862 11.0086L9.37931 11.2821C8.68965 11.2821 8.13793 11.4188 7.58621 11.4188C5.7931 11.5556 4.41379 12.9231 4.27586 14.7009C4.13793 16.2052 4 18.5299 4 20.171C4 21.812 4.13793 24 4.27586 25.6411C4.41379 27.4188 5.7931 28.7864 7.58621 28.9231C10.069 29.1966 13.3793 29.3334 16 29.3334C18.6207 29.3334 21.931 29.0599 24.4138 28.9231C26.2069 28.7864 27.5862 27.4188 27.7241 25.6411C27.8621 24.1368 28 21.9488 28 20.171C28 18.3932 27.8621 16.3419 27.7241 14.7009ZM16 22.6325C16.6897 22.6325 17.1034 22.0855 17.1034 21.5385V18.8035C17.1034 18.1197 16.6897 17.7094 16 17.7094C15.3103 17.7094 14.8966 18.2564 14.8966 18.8035V21.5385C14.8966 22.2223 15.3103 22.6325 16 22.6325Z" fill="#1C252E"/>
<path d="M17.1034 21.5385C17.1034 22.0855 16.6896 22.6325 15.9999 22.6325C15.3103 22.6325 14.8965 22.2223 14.8965 21.5385V18.8035C14.8965 18.2565 15.3103 17.7095 15.9999 17.7095C16.6896 17.7095 17.1034 18.1197 17.1034 18.8035V21.5385Z" fill="#1C252E"/>
</svg>
