<svg width="786" height="790" viewBox="0 0 786 790" fill="none" xmlns="http://www.w3.org/2000/svg">
<path d="M301.44 606.7C284.033 613.127 266.643 615.363 249.27 613.41C177.05 605.3 131.24 531.58 156.67 463.18C156.741 462.985 156.763 462.777 156.735 462.573C156.707 462.369 156.63 462.176 156.51 462.01C126.96 421.14 127.72 366.92 158.69 327.04C158.818 326.879 158.9 326.687 158.928 326.483C158.956 326.279 158.929 326.071 158.85 325.88C150.99 307.08 148.203 287.97 150.49 268.55C154.01 238.68 169.57 211.14 193.36 192.9C225.41 168.33 268.7 162.77 305.87 178.93C306.065 179.013 306.282 179.03 306.486 178.977C306.691 178.925 306.871 178.806 307 178.64C344.99 130.15 414.65 121.7 463.35 159.24C469.82 164.23 475.57 170.04 480.96 176.22C481.074 176.35 481.225 176.442 481.393 176.485C481.561 176.528 481.737 176.519 481.9 176.46C545.7 153.52 614.64 191.12 629.32 257.26C634.02 278.413 632.723 299.167 625.43 319.52C625.364 319.701 625.348 319.896 625.385 320.083C625.423 320.27 625.511 320.442 625.64 320.58C649.35 346.3 659.16 382.35 652.84 416.67C649.287 435.97 640.873 453.38 627.6 468.9C627.484 469.038 627.4 469.2 627.353 469.374C627.306 469.549 627.299 469.732 627.33 469.91C627.477 470.783 627.83 472.287 628.39 474.42C643.92 533.61 608.17 593.88 549.52 610.04C528.627 615.793 507.657 615.39 486.61 608.83C486.472 608.789 486.325 608.79 486.188 608.835C486.05 608.88 485.929 608.965 485.84 609.08C471.573 628.527 453.44 642.077 431.44 649.73C383.3 666.48 330.78 648.52 302.33 606.98C302.235 606.842 302.096 606.74 301.935 606.689C301.774 606.639 301.6 606.642 301.44 606.7ZM394.76 229.66C367.847 229.653 341.483 236.383 315.67 249.85C315.538 249.917 315.388 249.937 315.245 249.908C315.101 249.879 314.973 249.802 314.88 249.69C302.6 234.25 284.12 225.83 264.42 227.38C230.49 230.04 206.11 260.75 211.47 294.46C213.61 307.933 220.043 319.57 230.77 329.37C230.962 329.545 231.086 329.782 231.123 330.039C231.159 330.296 231.105 330.558 230.97 330.78C194.88 389.41 185.82 470.48 235.25 525.12C274.55 568.56 338.38 583.7 394.69 583.71C451.01 583.72 514.85 568.6 554.16 525.18C603.61 470.55 594.58 389.48 558.51 330.84C558.375 330.618 558.321 330.356 558.357 330.099C558.394 329.842 558.518 329.605 558.71 329.43C569.443 319.63 575.88 307.997 578.02 294.53C583.39 260.82 559.03 230.1 525.1 227.43C505.4 225.87 486.91 234.28 474.63 249.72C474.537 249.832 474.409 249.909 474.265 249.938C474.122 249.967 473.972 249.947 473.84 249.88C448.027 236.4 421.667 229.66 394.76 229.66Z" fill="#FFB829"/>
<path d="M235.25 525.12C274.55 568.56 338.38 583.7 394.69 583.71C451.01 583.72 514.85 568.6 554.16 525.18C603.61 470.55 594.58 389.48 558.51 330.84C558.375 330.618 558.321 330.356 558.357 330.099C558.394 329.842 558.518 329.605 558.71 329.43C569.443 319.63 575.88 307.997 578.02 294.53C583.39 260.82 559.03 230.1 525.1 227.43C505.4 225.87 486.91 234.28 474.63 249.72C474.538 249.832 474.409 249.909 474.265 249.938C474.122 249.967 473.972 249.947 473.84 249.88C448.027 236.4 421.667 229.66 394.76 229.66C367.847 229.653 341.483 236.383 315.67 249.85C315.538 249.917 315.388 249.937 315.245 249.908C315.101 249.879 314.973 249.802 314.88 249.69C302.6 234.25 284.12 225.83 264.42 227.38C230.49 230.04 206.11 260.75 211.47 294.46C213.61 307.933 220.043 319.57 230.77 329.37C230.962 329.545 231.087 329.782 231.123 330.039C231.16 330.296 231.105 330.558 230.97 330.78C194.88 389.41 185.82 470.48 235.25 525.12Z" fill="white"/>
<path d="M394.492 544.453C416.501 544.377 438.893 539.264 455.296 523.831C455.332 523.796 455.357 523.752 455.369 523.704C455.381 523.655 455.378 523.604 455.362 523.557C455.346 523.509 455.317 523.467 455.278 523.436C455.239 523.404 455.192 523.385 455.142 523.379C449.443 522.717 443.742 521.277 438.039 519.059C433.314 517.226 430.297 516.117 428.988 515.733C417.368 512.312 405.953 510.779 394.374 510.82C382.789 510.861 371.392 512.471 359.795 515.968C358.486 516.364 355.477 517.494 350.768 519.359C345.077 521.616 339.386 523.095 333.694 523.796C333.644 523.802 333.597 523.822 333.558 523.853C333.519 523.885 333.49 523.927 333.474 523.974C333.458 524.021 333.456 524.072 333.468 524.121C333.479 524.169 333.505 524.214 333.541 524.248C350.049 539.57 372.477 544.524 394.492 544.453Z" stroke="#FF9129" stroke-width="2"/>
<path d="M374.437 448.727C375.643 449.929 376.321 451.56 376.321 453.261C376.321 454.961 375.643 456.592 374.437 457.794C373.231 458.997 371.595 459.672 369.889 459.672C368.183 459.672 366.547 458.997 365.34 457.794C364.134 456.592 363.456 454.961 363.456 453.261C363.456 451.56 364.134 449.929 365.34 448.727C366.547 447.524 368.183 446.849 369.889 446.849C371.595 446.849 373.231 447.524 374.437 448.727Z" stroke="#FF9129" stroke-width="2"/>
<path d="M414.312 447.411C415.065 447.045 415.882 446.833 416.716 446.788C418.4 446.697 420.053 447.291 421.31 448.44C422.568 449.588 423.326 451.197 423.419 452.912C423.465 453.761 423.347 454.611 423.07 455.413C422.794 456.215 422.364 456.953 421.807 457.585C421.25 458.218 420.576 458.732 419.823 459.098C419.07 459.465 418.253 459.677 417.418 459.722C415.734 459.813 414.081 459.219 412.824 458.07C411.567 456.922 410.808 455.313 410.715 453.598C410.669 452.749 410.787 451.899 411.064 451.097C411.34 450.295 411.77 449.557 412.327 448.925C412.884 448.292 413.559 447.778 414.312 447.411Z" stroke="#FF9129" stroke-width="2"/>
<path d="M322.805 524.613C316.563 524.699 311.95 524.53 308.967 524.107C302.042 523.12 296.193 520.328 291.421 515.733C284.694 509.245 282.53 499.16 284.971 490.438C287.489 481.447 295.071 475.264 304.209 473.048C307.375 472.278 311.721 472.631 314.733 471.832C322.368 469.81 327.999 462.963 332.668 457.057C336.151 452.649 340.359 447.151 345.291 440.561C354.683 428.019 367.908 419.404 383.479 416.853C398.484 414.402 414.037 417.211 426.654 425.557C436.075 431.786 442.142 439.456 449.064 448.753C454.177 455.621 459.11 461.373 463.862 466.008C466.162 468.245 468.827 469.959 471.857 471.15C474.61 472.231 478.024 472.202 481.231 472.831C497.186 475.94 507.067 490.268 501.377 506.212C497.834 516.144 487.569 522.638 477.116 524.013C473.174 524.53 469.231 524.726 465.289 524.601C465.136 524.595 464.984 524.627 464.846 524.692C464.707 524.758 464.586 524.855 464.493 524.977C459.045 532.076 450.844 537.842 442.968 541.591C435.503 545.153 427.933 547.856 419.443 549.531C404.708 552.434 389.785 552.777 374.676 550.56C355.585 547.756 335.905 539.963 323.412 524.895C323.338 524.805 323.245 524.733 323.14 524.684C323.035 524.635 322.92 524.611 322.805 524.613ZM353.54 442.759C347.868 449.928 342.066 458.338 335.923 465.585C330.452 472.032 323.589 478.044 315.063 479.484C314.167 479.636 312.349 479.821 309.61 480.036C296.798 481.041 288.125 491.878 293.054 504.396C296.268 512.565 305.029 516.403 313.531 517.108C324.493 518.009 335.178 516.83 345.586 513.57C349.666 512.295 353.133 510.684 356.906 509.286C362.763 507.103 368.998 505.544 375.614 504.608C390.212 502.539 404.629 502.827 418.865 505.472C421.546 505.969 425.703 507.047 431.335 508.704C432.219 508.966 435.114 510.077 440.02 512.036C448.651 515.488 457.613 517.206 466.905 517.19C470.477 517.186 473.359 517.014 475.548 516.673C481.904 515.68 488.177 512.788 491.832 507.564C495.971 501.634 496.519 493.906 492.28 487.858C489.792 484.303 485.824 481.993 481.538 480.718C480.764 480.487 478.496 480.107 474.734 479.578C469.636 478.861 465.01 476.859 460.855 473.571C456.831 470.386 452.45 465.753 447.714 459.672C444.357 455.355 440.625 450.506 436.517 445.127C432.831 440.3 428.364 436.076 423.116 432.456C412.763 425.316 399.633 422.718 387.211 424.158C373.285 425.776 362.061 431.976 353.54 442.759ZM394.492 544.453C416.501 544.377 438.893 539.264 455.296 523.831C455.332 523.796 455.357 523.752 455.369 523.703C455.381 523.655 455.378 523.604 455.362 523.557C455.346 523.509 455.317 523.467 455.278 523.436C455.239 523.404 455.192 523.384 455.142 523.379C449.443 522.716 443.742 521.277 438.039 519.059C433.314 517.225 430.297 516.117 428.989 515.733C417.368 512.312 405.954 510.778 394.374 510.82C382.789 510.861 371.392 512.471 359.795 515.968C358.486 516.363 355.477 517.494 350.769 519.359C345.077 521.616 339.386 523.095 333.694 523.796C333.644 523.802 333.597 523.822 333.558 523.853C333.519 523.885 333.49 523.927 333.474 523.974C333.458 524.021 333.456 524.072 333.468 524.121C333.48 524.169 333.505 524.214 333.541 524.248C350.049 539.57 372.477 544.524 394.492 544.453Z" fill="#FF9129"/>
<path d="M335.923 465.585C342.066 458.338 347.868 449.928 353.54 442.758C362.061 431.976 373.285 425.776 387.211 424.158C399.633 422.718 412.763 425.316 423.116 432.456C428.364 436.076 432.831 440.3 436.517 445.127C440.625 450.506 444.357 455.355 447.714 459.672C452.45 465.753 456.831 470.386 460.855 473.571C465.01 476.859 469.636 478.861 474.734 479.578C478.496 480.107 480.764 480.487 481.538 480.718C485.824 481.993 489.792 484.303 492.28 487.858C496.519 493.906 495.971 501.634 491.832 507.564C488.177 512.788 481.904 515.68 475.548 516.673C473.359 517.014 470.477 517.186 466.905 517.19C457.613 517.206 448.651 515.488 440.02 512.036C435.114 510.077 432.219 508.966 431.335 508.704C425.703 507.046 421.546 505.969 418.865 505.471C404.629 502.827 390.212 502.539 375.614 504.608C368.998 505.544 362.763 507.103 356.906 509.286C353.133 510.684 349.666 512.295 345.586 513.57C335.178 516.83 324.493 518.009 313.531 517.108C305.029 516.403 296.268 512.565 293.054 504.396C288.125 491.878 296.798 481.041 309.61 480.036C312.349 479.821 314.167 479.636 315.063 479.484C323.589 478.044 330.452 472.032 335.923 465.585ZM376.321 453.261C376.321 451.56 375.643 449.929 374.437 448.727C373.231 447.524 371.595 446.849 369.889 446.849C368.183 446.849 366.547 447.524 365.34 448.727C364.134 449.929 363.456 451.56 363.456 453.261C363.456 454.961 364.134 456.592 365.34 457.794C366.547 458.997 368.183 459.672 369.889 459.672C371.595 459.672 373.231 458.997 374.437 457.794C375.643 456.592 376.321 454.961 376.321 453.261ZM416.716 446.788C415.882 446.833 415.065 447.045 414.312 447.411C413.559 447.778 412.884 448.292 412.327 448.924C411.77 449.557 411.341 450.295 411.064 451.097C410.787 451.899 410.669 452.748 410.715 453.598C410.808 455.313 411.567 456.922 412.824 458.07C414.081 459.218 415.734 459.813 417.418 459.722C418.253 459.677 419.07 459.465 419.823 459.098C420.576 458.732 421.25 458.217 421.807 457.585C422.365 456.953 422.794 456.215 423.07 455.413C423.347 454.611 423.466 453.761 423.419 452.912C423.326 451.197 422.568 449.588 421.31 448.439C420.053 447.291 418.401 446.697 416.716 446.788Z" fill="#FF9129"/>
<path d="M369.889 459.672C373.441 459.672 376.321 456.802 376.321 453.261C376.321 449.72 373.441 446.849 369.889 446.849C366.336 446.849 363.456 449.72 363.456 453.261C363.456 456.802 366.336 459.672 369.889 459.672Z" fill="#292929"/>
<path d="M423.419 452.912C423.225 449.34 420.224 446.599 416.716 446.788C413.207 446.977 410.521 450.026 410.715 453.598C410.909 457.169 413.91 459.911 417.418 459.722C420.927 459.532 423.613 456.484 423.419 452.912Z" fill="#292929"/>
<path d="M394.374 510.82C405.953 510.779 417.368 512.312 428.988 515.733C430.297 516.117 433.314 517.226 438.039 519.059C443.742 521.277 449.443 522.717 455.142 523.379C455.192 523.385 455.239 523.404 455.278 523.436C455.317 523.467 455.346 523.509 455.362 523.557C455.378 523.604 455.381 523.655 455.369 523.704C455.357 523.752 455.332 523.796 455.296 523.831C438.893 539.264 416.501 544.377 394.492 544.453C372.477 544.524 350.049 539.57 333.541 524.248C333.505 524.214 333.479 524.169 333.468 524.121C333.456 524.072 333.458 524.021 333.474 523.974C333.49 523.927 333.519 523.885 333.558 523.853C333.597 523.822 333.644 523.802 333.694 523.796C339.386 523.095 345.077 521.616 350.768 519.359C355.477 517.494 358.486 516.364 359.795 515.968C371.392 512.471 382.789 510.861 394.374 510.82Z" fill="#FF9129"/>
<path d="M393.997 302.695C399.609 302.695 405.116 302.1 410.52 300.911C413.033 300.357 415.671 299.55 417.665 298.402C428.191 292.348 440.53 288.445 452.301 285.541C470.322 281.099 488.805 278.404 507.747 277.456C535.321 276.076 562.855 277.827 590.352 282.709C592.837 283.154 595.137 284.592 595.896 287.128C595.951 287.31 595.978 287.498 595.978 287.688C596 290.546 596.005 294.725 595.995 300.225C595.995 301.268 595.426 302.064 594.503 302.739C588.357 307.196 585.192 313.552 585.01 321.808C584.941 324.889 584.795 327.579 584.573 329.877C583.335 342.707 580.675 357.663 576.593 374.745C573.605 387.255 566.045 400.516 554.143 405.687C551.754 406.726 548.663 407.839 544.868 409.025C525.398 415.11 505.24 417.211 484.397 415.326C477.94 414.744 473.03 414.139 469.665 413.509C460.569 411.811 452.741 408.34 446.183 403.096C437.575 396.202 431.064 386.925 426.23 377.204C419.347 363.361 414.502 348.622 409.248 333.083C408.869 331.97 408.05 330.525 406.79 328.746C405.719 327.239 404.519 326.104 403.19 325.343C400.131 323.592 397.602 323.554 394.003 323.554C390.398 323.554 387.869 323.592 384.81 325.343C383.481 326.104 382.281 327.239 381.21 328.746C379.95 330.525 379.131 331.97 378.752 333.083C373.498 348.622 368.653 363.361 361.776 377.204C356.942 386.925 350.431 396.202 341.822 403.096C335.264 408.344 327.437 411.817 318.34 413.515C314.976 414.144 310.065 414.75 303.609 415.332C282.765 417.216 262.608 415.116 243.137 409.03C239.343 407.844 236.251 406.732 233.862 405.693C221.96 400.522 214.4 387.266 211.413 374.756C207.327 357.674 204.665 342.718 203.427 329.888C203.205 327.59 203.059 324.9 202.99 321.819C202.808 313.563 199.643 307.207 193.497 302.75C192.574 302.075 192.005 301.279 192.005 300.236C191.995 294.736 192 290.557 192.022 287.699C192.022 287.509 192.049 287.321 192.104 287.139C192.863 284.603 195.163 283.165 197.648 282.72C225.145 277.835 252.679 276.082 280.253 277.461C299.195 278.409 317.678 281.104 335.699 285.547C347.47 288.445 359.809 292.348 370.335 298.402C372.329 299.55 374.967 300.357 377.48 300.911C382.884 302.1 388.389 302.695 393.997 302.695Z" fill="black"/>
<rect x="278.856" y="320" width="14" height="49.5527" rx="7" transform="rotate(22.3659 278.856 320)" fill="white"/>
<rect x="489.856" y="320" width="14" height="49.5527" rx="7" transform="rotate(22.3659 489.856 320)" fill="white"/>
<rect x="310.856" y="320" width="14" height="49.5527" rx="7" transform="rotate(22.3659 310.856 320)" fill="white"/>
<rect x="521.856" y="320" width="14" height="49.5527" rx="7" transform="rotate(22.3659 521.856 320)" fill="white"/>
</svg>
