<svg width="45" height="45" viewBox="0 0 45 45" fill="none" xmlns="http://www.w3.org/2000/svg">
<path d="M21.1587 42.4432C21.8608 43.2153 23.0757 43.2153 23.7778 42.4432L26.8628 39.0507C27.5864 38.2549 28.6554 37.8662 29.7212 38.0106L34.2651 38.6259C35.2992 38.766 36.2302 37.9859 36.272 36.9432L36.4546 32.3602C36.4976 31.2857 37.0659 30.3008 37.9751 29.7264L41.8521 27.2772C42.7343 26.7198 42.9456 25.5236 42.3071 24.6981L39.5015 21.0712C38.8435 20.2204 38.6458 19.0996 38.9731 18.0751L40.3687 13.7069C40.6861 12.7129 40.0787 11.6613 39.0591 11.4393L34.5786 10.4637C33.5277 10.2349 32.6564 9.50389 32.2485 8.50867L30.5093 4.2655C30.1136 3.29989 28.9732 2.88478 28.0493 3.37L23.9888 5.50281C23.0368 6.00278 21.8997 6.00288 20.9478 5.50281L16.8882 3.37C15.9643 2.8846 14.823 3.29981 14.4272 4.2655L12.688 8.50867C12.2802 9.50369 11.4096 10.2348 10.3589 10.4637L5.87744 11.4393C4.8579 11.6614 4.25055 12.7129 4.56787 13.7069L5.96338 18.0751C6.29068 19.0996 6.09401 20.2204 5.43604 21.0712L2.63037 24.6981C1.99201 25.5236 2.20248 26.7197 3.08447 27.2772L6.96143 29.7264C7.87059 30.3008 8.43991 31.2857 8.48291 32.3602L8.66553 36.9432C8.70728 37.9859 9.63732 38.766 10.6714 38.6259L15.2153 38.0106C16.2811 37.8662 17.3501 38.2549 18.0737 39.0507L21.1587 42.4432Z" fill="#AFFF8A" stroke="black" stroke-width="1.5"/>
<ellipse cx="3.24994" cy="4.33325" rx="3.24994" ry="4.33325" transform="matrix(-0.993729 -0.111813 -0.111813 0.993729 31.8774 15.9702)" fill="black"/>
<circle cx="1.35414" cy="1.35414" r="1.35414" transform="matrix(-0.993729 -0.111813 -0.111813 0.993729 31.0361 20.0658)" fill="white"/>
<ellipse cx="3.24994" cy="4.33325" rx="3.24994" ry="4.33325" transform="matrix(-0.993729 -0.111813 -0.111813 0.993729 21.6548 14.8198)" fill="black"/>
<circle cx="1.35414" cy="1.35414" r="1.35414" transform="matrix(-0.993729 -0.111813 -0.111813 0.993729 20.231 18.0311)" fill="white"/>
</svg>
