<svg width="20" height="20" viewBox="0 0 20 20" fill="none" xmlns="http://www.w3.org/2000/svg">
<path d="M3.69897 2.55115L4.42896 2.16284C4.16191 2.24781 3.91858 2.37724 3.69897 2.55115Z" fill="#52B543"/>
<path d="M3.08379 3.11842L3.62939 2.60266C3.42021 2.74439 3.23835 2.91631 3.08379 3.11842Z" fill="#52B543"/>
<path d="M6.88676 4.56749C6.86268 4.56894 6.84327 4.59714 6.82854 4.6521C6.85262 4.73019 6.9033 4.78009 6.98057 4.80178C6.99268 4.80501 7.0053 4.80593 7.01777 4.80449L7.2097 4.78009L7.73158 4.76653C7.73977 4.76653 7.74781 4.768 7.7553 4.77087C7.88217 4.82004 7.99288 4.81859 8.0874 4.76653L7.44746 4.46228C7.38133 4.43095 7.30564 4.42649 7.23612 4.44981L6.88676 4.56749Z" fill="#52B543"/>
<path d="M4.31566 6.16905C4.32069 6.16652 4.32555 6.16381 4.33022 6.16092L4.08168 7.0856C4.08959 7.12067 4.10468 7.14796 4.12697 7.16749C4.1284 7.16857 4.15231 7.17779 4.19867 7.19515C4.23785 7.20961 4.26157 7.25047 4.26984 7.31771C4.38413 6.9887 4.52197 6.67867 4.68335 6.38761C4.70869 6.16146 4.48225 6.13868 4.31566 6.16905Z" fill="#52B543"/>
<path d="M11.8111 6.3827C11.841 6.4626 11.8494 6.55299 11.8365 6.65386C11.7747 7.13835 11.7012 7.53678 11.616 7.84917C11.5308 8.16318 11.355 8.52491 11.2661 8.78632C11.1049 9.26194 11.0143 9.81892 10.9658 10.313C10.9212 10.7671 10.9336 11.2031 11.003 11.6211C11.086 12.1228 11.3637 12.6266 11.6462 13.0642C11.8289 13.3473 12.0058 13.5637 12.2829 13.779C12.732 14.1278 13.2193 14.374 13.7461 14.579C14.1483 14.7352 14.3531 15.1343 14.4949 15.5145C14.68 16.0124 14.8069 16.5314 14.8755 17.0715C14.9564 17.0737 15.011 17.0323 15.0394 16.9473C15.3877 15.9115 15.653 14.8257 15.8589 13.8946C16.4124 11.3901 16.8937 8.83549 17.3027 6.23084C17.3037 6.22487 17.3033 6.21875 17.3016 6.21293C17.3 6.20711 17.297 6.20174 17.2931 6.19718C17.2891 6.19263 17.2842 6.189 17.2787 6.18657C17.2732 6.18414 17.2672 6.18296 17.2612 6.18312L11.8111 6.3827Z" fill="#52B543"/>
<path d="M4.86721 9.81836L4.94808 9.95937C4.9521 9.96643 4.95369 9.97464 4.95262 9.98276C4.95155 9.99089 4.94788 9.99847 4.94215 10.0044C4.67798 10.277 4.405 10.5397 4.12321 10.7924C3.80441 11.0787 3.46009 11.2028 3.09024 11.1644L2.13329 15.3371C2.13181 15.3434 2.1321 15.35 2.1341 15.3562C2.13611 15.3624 2.13977 15.3678 2.14467 15.372C2.14957 15.3762 2.15553 15.379 2.1619 15.38C2.16826 15.381 2.17477 15.3803 2.18073 15.3778C3.00236 15.0354 3.80639 14.7167 4.5928 14.4217C4.74591 14.3642 4.89489 14.3629 5.03973 14.4179C5.38118 14.5473 5.68992 14.6898 5.96596 14.8452C6.96119 15.4049 7.99955 16.206 8.91661 16.975C8.97663 17.0249 9.07493 17.0527 9.21151 17.0585C9.99073 17.091 10.7696 17.118 11.5481 17.1393C11.3982 16.4007 11.1481 15.6786 10.7976 14.9732C10.4939 14.3626 10.1234 13.8363 9.68594 13.3945C9.54146 13.2484 9.32814 13.0566 9.046 12.8191C8.65783 12.4926 8.36346 12.2144 8.08258 11.8863C8.01141 11.8028 7.93054 11.6643 7.83997 11.4708C7.7591 11.2977 7.66277 11.0988 7.55099 10.8743C7.53949 10.8508 7.49978 10.7917 7.43185 10.6969C7.37937 10.6232 7.36248 10.5558 7.38117 10.4946C6.92471 10.5981 6.47471 10.6082 6.03119 10.525C5.5661 10.4375 5.17811 10.202 4.86721 9.81836Z" fill="#52B543"/>
<path d="M5.67218 2.0343C5.98811 2.13915 6.24887 2.3306 6.45446 2.60863C6.46529 2.62341 6.47098 2.64133 6.47063 2.65961C6.4647 2.85919 6.47279 3.06202 6.4426 3.22201C6.29111 4.03063 5.58377 4.66787 4.88182 5.01008C4.31142 5.28776 3.70275 5.34452 3.05579 5.18038C3.04102 5.17683 3.02753 5.16891 3.01698 5.1576C2.88651 5.01948 2.78228 4.83111 2.70428 4.59249C2.63455 4.37845 2.62251 4.18086 2.66816 3.99972C2.73861 3.72023 2.87105 3.45142 3.0655 3.19327C3.07556 3.18025 3.07556 3.16344 3.0655 3.14283C2.90663 3.34349 2.7821 3.56549 2.69188 3.80882C2.51505 4.28444 2.64552 4.6554 2.89621 5.10662C3.05831 5.39803 3.25779 5.65781 3.49464 5.88595C3.72971 6.06926 4.00825 6.16091 4.33029 6.16091C4.32562 6.16381 4.32077 6.16652 4.31574 6.16905C4.33946 6.1535 4.36282 6.14627 4.38582 6.14735C4.59824 6.15766 4.80365 6.14735 5.01445 6.07794C5.56939 5.89499 6.04958 5.5958 6.455 5.18038C6.55384 5.07914 6.67838 4.90306 6.82862 4.65214C6.84335 4.59719 6.86276 4.56899 6.88684 4.56754C6.88145 4.54404 6.88127 4.5265 6.8863 4.51493C7.03259 4.19098 7.0714 3.85871 7.00276 3.51812C6.96142 3.41942 6.92189 3.32162 6.88415 3.22472C6.84066 3.113 6.79501 3.01846 6.74721 2.94108C6.63327 2.75633 6.56013 2.64208 6.52778 2.59833C6.43182 2.46925 6.29398 2.34705 6.11427 2.23171C6.10288 2.22456 6.09299 2.21516 6.08516 2.20405C6.0334 2.13138 5.96978 2.12108 5.88891 2.08257C5.82314 2.05111 5.7509 2.03502 5.67218 2.0343Z" fill="#D55147"/>
<path d="M8.08743 4.7666C7.9929 4.81867 7.8822 4.82011 7.75533 4.77094C7.74784 4.76807 7.7398 4.7666 7.73161 4.7666L7.20973 4.78016L7.08519 4.83656C7.07243 4.84235 7.06111 4.85091 7.05204 4.86164C7.04298 4.87237 7.03641 4.88499 7.03279 4.8986C7.02918 4.9122 7.02862 4.92644 7.03116 4.94029C7.03369 4.95413 7.03926 4.96724 7.04745 4.97865C7.0913 5.04012 7.14413 5.11894 7.20596 5.21511C7.62001 5.8594 7.03074 6.54437 6.48891 6.85296C6.06678 7.09375 5.27102 7.28628 4.97127 6.74829C4.88932 6.60077 4.83918 6.482 4.68337 6.38763C4.52199 6.67869 4.38415 6.98872 4.26986 7.31774C4.23428 7.60626 4.22565 7.90364 4.24398 8.20987C4.25333 8.37221 4.29394 8.55896 4.36582 8.7701C4.50528 9.17902 4.67241 9.52847 4.86722 9.81843C5.17811 10.202 5.56611 10.4376 6.03119 10.5251C6.47472 10.6083 6.92471 10.5981 7.38117 10.4947L7.9451 10.3158C8.49393 10.0916 8.9725 9.76962 9.3808 9.34986C9.78623 8.92865 10.0754 8.45953 10.2483 7.9425C10.3291 7.70098 10.3644 7.39493 10.3539 7.02433C10.3518 6.95166 10.3464 6.90412 10.3378 6.8817C10.2935 6.76889 10.2962 6.66585 10.2359 6.54166C10.0863 6.23144 9.91616 5.98504 9.7253 5.80246C9.59987 5.68278 9.51451 5.57395 9.46922 5.47597C9.32725 5.39065 9.17431 5.29285 9.01042 5.18257C8.80771 5.0459 8.64381 4.9566 8.51873 4.91466C8.36167 4.86151 8.2179 4.81216 8.08743 4.7666Z" fill="#D55147"/>
<path d="M7.00266 3.51814C7.07131 3.85872 7.03249 4.19099 6.88621 4.51495C6.88117 4.52652 6.88135 4.54405 6.88674 4.56755L7.2361 4.44987C7.30562 4.42655 7.38131 4.43101 7.44744 4.46234L8.08738 4.76659C8.21785 4.81214 8.36162 4.8615 8.51869 4.91465C8.64376 4.95659 8.80766 5.04589 9.01037 5.18256C9.17427 5.29283 9.3272 5.39063 9.46917 5.47596C9.97164 5.71712 10.4268 6.00492 10.8348 6.33935C10.8769 6.37402 10.93 6.39265 10.9847 6.39196L11.8111 6.38274L17.2612 6.18316C17.2672 6.18301 17.2732 6.18419 17.2787 6.18662C17.2842 6.18905 17.2891 6.19267 17.2931 6.19722C17.2971 6.20178 17.3 6.20716 17.3016 6.21298C17.3033 6.21879 17.3037 6.22491 17.3027 6.23089C16.8937 8.83553 16.4124 11.3901 15.8589 13.8946C15.653 14.8258 15.3877 15.9115 15.0394 16.9474C15.0111 17.0324 14.9564 17.0738 14.8756 17.0716C14.491 17.1269 14.1003 17.1564 13.7035 17.16C12.9854 17.1669 12.2669 17.16 11.5481 17.1394C10.7695 17.118 9.99069 17.0911 9.21147 17.0586C9.07489 17.0528 8.97659 17.0249 8.91656 16.975C7.99951 16.206 6.96114 15.405 5.96591 14.8453C5.68988 14.6898 5.38114 14.5474 5.03969 14.4179C4.89484 14.363 4.74586 14.3643 4.59275 14.4217C3.80634 14.7168 3.00232 15.0355 2.18069 15.3779C2.17473 15.3803 2.16821 15.3811 2.16185 15.3801C2.15549 15.3791 2.14953 15.3763 2.14463 15.3721C2.13972 15.3679 2.13607 15.3624 2.13406 15.3563C2.13205 15.3501 2.13177 15.3435 2.13325 15.3372L3.0902 11.1645L4.08166 7.0856L4.3302 6.16093C4.00816 6.16093 3.72961 6.06927 3.49455 5.88596C2.78721 8.23318 2.16631 10.6008 1.63185 12.9889C1.39176 14.0833 1.18492 15.1819 1.01132 16.2847C0.988314 16.4296 1.00036 16.5748 1.04744 16.7201C1.18797 16.7158 1.31664 16.6862 1.43346 16.6312C2.0513 16.3405 2.62906 16.076 3.16675 15.8378C3.50317 15.6888 3.85217 15.5514 4.21374 15.4256C4.32876 15.3858 4.44269 15.3578 4.55555 15.3415C4.58046 15.338 4.60593 15.3394 4.63049 15.3459C4.69986 15.364 4.76725 15.3918 4.83266 15.4294C5.81064 15.9923 6.76436 16.611 7.69382 17.2853C7.98333 17.4957 8.1909 17.6736 8.53432 17.9556C8.64646 18.0478 8.75321 18.0803 8.89176 18.089C11.1949 18.2249 13.522 18.2233 15.8729 18.0841C16.1479 17.4677 16.3788 16.8228 16.5657 16.1496C16.7091 15.634 16.8666 15.0362 17.038 14.3561C17.0876 14.1591 17.1255 13.9866 17.1518 13.8387C17.2283 13.407 17.3431 13.0111 17.438 12.5447C17.6271 11.6119 17.7257 11.1285 17.734 11.0945C17.7669 10.9589 17.7701 10.8017 17.8063 10.6677C17.8329 10.5701 17.856 10.4649 17.8758 10.3521C18.127 8.90839 18.2958 7.89639 18.4796 6.52158C18.4803 6.51399 18.4971 6.33935 18.5298 5.99768C18.5542 5.74604 18.6034 5.49548 18.6775 5.24601C18.6311 5.13935 18.5623 5.06704 18.471 5.02908C18.3707 4.98786 18.2058 4.97177 17.9761 4.98081C16.2207 5.04969 14.5321 5.1446 12.6252 5.22215C12.1745 5.24059 11.6241 5.29374 11.1658 5.29265C11.0864 5.29229 11.0111 5.26789 10.9399 5.21944C10.6305 5.0072 10.1621 4.70133 9.53494 4.30181C9.04757 3.99123 8.59075 3.74538 8.16448 3.56424C8.00598 3.49699 7.864 3.44908 7.73857 3.42052C7.48841 3.36357 7.25012 3.47909 7.00266 3.51814Z" fill="#F2EAC0"/>
<path d="M1.04756 16.7202C1.17839 17.0069 1.31317 17.24 1.45191 17.4193C1.50942 17.4934 1.58921 17.5072 1.69128 17.4605C2.5582 17.0641 3.50383 16.5131 4.11521 16.307C4.30174 16.2441 4.47858 16.1665 4.70124 16.2571C4.7627 16.282 4.91635 16.3657 5.16219 16.5082C5.20928 16.5353 5.51946 16.7293 6.09273 17.0901C6.39824 17.2821 6.70051 17.4875 6.99954 17.7062C7.42474 18.0171 7.91211 18.374 8.46166 18.7768C8.59159 18.8722 8.74902 18.9048 8.92316 18.9123C9.21321 18.9246 9.47307 18.9373 9.70274 18.9503C10.0733 18.9706 10.333 18.9819 10.4818 18.9845C11.9098 19.0091 13.3476 19.0045 14.7953 18.9709C15.0139 18.9659 15.4714 18.9386 16.168 18.889C16.1424 18.6518 16.0991 18.4678 16.038 18.3369C16.0165 18.291 15.9615 18.2068 15.8731 18.0842C13.5221 18.2234 11.195 18.225 8.89189 18.0891C8.75333 18.0804 8.64658 18.0479 8.53444 17.9557C8.19102 17.6737 7.98346 17.4958 7.69394 17.2853C6.76448 16.611 5.81077 15.9924 4.83279 15.4295C4.76737 15.3919 4.69998 15.364 4.63061 15.346C4.60605 15.3395 4.58058 15.338 4.55567 15.3416C4.44282 15.3579 4.32888 15.3859 4.21387 15.4257C3.85229 15.5515 3.50329 15.6889 3.16688 15.8379C2.62919 16.0761 2.05142 16.3406 1.43358 16.6313C1.31677 16.6863 1.1881 16.7159 1.04756 16.7202Z" fill="#CEAA88"/>
<path d="M7.94498 10.3157C8.22964 10.6075 8.50657 10.8903 8.77578 11.164C9.24194 11.638 9.69409 12.0691 10.1322 12.4574C10.2925 12.5995 10.4361 12.7065 10.563 12.7785C10.5693 12.7819 10.5764 12.7838 10.5836 12.7838C10.5908 12.7839 10.5979 12.7822 10.6043 12.7789C10.6106 12.7756 10.616 12.7707 10.62 12.7648C10.624 12.7588 10.6265 12.752 10.6271 12.7449C10.63 12.712 10.625 12.6664 10.612 12.6082C10.5438 12.3103 10.4293 11.9525 10.2686 11.5349C9.98756 10.806 9.69158 10.0777 9.38068 9.34985C8.97238 9.76962 8.49381 10.0916 7.94498 10.3157Z" fill="#D9EEF7"/>
<path d="M9.46911 5.47595C9.51439 5.57393 9.59975 5.68276 9.72519 5.80244C9.91604 5.98502 10.0862 6.23142 10.2357 6.54164C10.2961 6.66583 10.2934 6.76887 10.3376 6.88168C10.3463 6.9041 10.3517 6.95164 10.3538 7.02431C10.3642 7.39491 10.329 7.70096 10.2481 7.94248C10.0753 8.45951 9.78611 8.92862 9.38069 9.34984C9.69159 10.0776 9.98757 10.806 10.2686 11.5349C10.4293 11.9525 10.5438 12.3103 10.6121 12.6082C10.625 12.6664 10.63 12.7119 10.6272 12.7448C10.6265 12.752 10.624 12.7588 10.62 12.7647C10.616 12.7707 10.6106 12.7755 10.6043 12.7789C10.5979 12.7822 10.5908 12.7839 10.5836 12.7838C10.5764 12.7838 10.5693 12.7819 10.563 12.7785C10.4361 12.7065 10.2925 12.5995 10.1322 12.4574C9.6941 12.0691 9.24195 11.6379 8.77579 11.1639C8.50658 10.8902 8.22965 10.6075 7.94499 10.3157L7.38106 10.4947C7.36237 10.5558 7.37926 10.6232 7.43174 10.697C7.49967 10.7917 7.53938 10.8508 7.55089 10.8743C7.66266 11.0989 7.75899 11.2977 7.83986 11.4709C7.93043 11.6643 8.0113 11.8028 8.08247 11.8863C8.36335 12.2144 8.65772 12.4927 9.04589 12.8191C9.32803 13.0567 9.54135 13.2485 9.68583 13.3946C10.1232 13.8364 10.4938 14.3626 10.7975 14.9733C11.148 15.6787 11.3981 16.4007 11.548 17.1394C12.2668 17.16 12.9853 17.1668 13.7034 17.16C14.1002 17.1564 14.4909 17.1269 14.8755 17.0716C14.8068 16.5314 14.68 16.0124 14.4949 15.5145C14.3531 15.1344 14.1482 14.7352 13.746 14.579C13.2193 14.374 12.7319 14.1278 12.2828 13.7791C12.0057 13.5638 11.8289 13.3474 11.6461 13.0643C11.3636 12.6266 11.086 12.1228 11.0029 11.6211C10.9336 11.2032 10.9212 10.7671 10.9657 10.313C11.0142 9.81895 11.1048 9.26198 11.266 8.78635C11.355 8.52495 11.5307 8.16321 11.6159 7.8492C11.7011 7.53682 11.7746 7.13838 11.8364 6.6539C11.8494 6.55303 11.8409 6.46264 11.8111 6.38273L10.9846 6.39195C10.9299 6.39264 10.8769 6.37401 10.8347 6.33935C10.4268 6.00491 9.97157 5.71711 9.46911 5.47595Z" fill="#60B4E5"/>
<path d="M3.09018 11.1645C3.46002 11.2028 3.80434 11.0788 4.12315 10.7924C4.40493 10.5397 4.67791 10.277 4.94208 10.0044C4.94781 9.9985 4.95149 9.99091 4.95256 9.98279C4.95363 9.97467 4.95203 9.96645 4.94802 9.95939L4.86715 9.81839C4.67234 9.52842 4.50521 9.17898 4.36576 8.77006C4.29387 8.55891 4.25326 8.37217 4.24391 8.20983C4.22558 7.90359 4.23421 7.60621 4.26979 7.31769C4.26152 7.25044 4.2378 7.20958 4.19863 7.19512C4.15226 7.17777 4.12836 7.16855 4.12692 7.16746C4.10464 7.14794 4.08954 7.12064 4.08164 7.08557L3.09018 11.1645Z" fill="#60B4E5"/>
<path d="M18.6775 5.24609C18.6035 5.49557 18.5542 5.74612 18.5298 5.99777C18.4971 6.33944 18.4804 6.51407 18.4796 6.52166C18.2958 7.89648 18.127 8.90847 17.8758 10.3522C17.856 10.465 17.8329 10.5702 17.8063 10.6678C17.7701 10.8018 17.7669 10.959 17.734 11.0946C17.7258 11.1286 17.6271 11.612 17.438 12.5448C17.3432 13.0112 17.2283 13.4071 17.1518 13.8388C17.1255 13.9867 17.0876 14.1592 17.038 14.3562C16.8666 15.0363 16.7091 15.6341 16.5657 16.1497C16.3788 16.8229 16.1479 17.4677 15.873 18.0842C15.9614 18.2068 16.0164 18.291 16.0379 18.3369C16.099 18.4678 16.1423 18.6518 16.1679 18.889C16.2365 18.8738 16.2859 18.8395 16.3161 18.786C16.3668 18.696 16.4401 18.5425 16.48 18.4302C16.7496 17.6742 16.9713 16.9608 17.1453 16.2902C17.3178 15.6242 17.5182 14.7987 17.7464 13.8139C18.0325 12.5788 18.3389 10.924 18.6656 8.84935C18.8137 7.88798 18.9232 7.02874 18.994 6.27165C19.0274 5.91624 18.9219 5.57439 18.6775 5.24609Z" fill="#E2D1A6"/>
<path d="M4.42876 2.16289L3.69878 2.5512L3.62924 2.60272L3.08364 3.11848L3.06531 3.14288C3.07537 3.16349 3.07537 3.1803 3.06531 3.19332C2.87086 3.45147 2.73842 3.72029 2.66797 3.99977C2.62232 4.18091 2.63436 4.3785 2.70409 4.59254C2.78209 4.83116 2.88632 5.01953 3.01679 5.15765C3.02734 5.16896 3.04083 5.17688 3.0556 5.18043C3.70256 5.34457 4.31123 5.28781 4.88163 5.01013C5.58358 4.66792 6.29091 4.03068 6.44241 3.22206C6.4726 3.06207 6.46451 2.85924 6.47044 2.65966C6.47079 2.64138 6.4651 2.62346 6.45427 2.60868C6.24868 2.33065 5.98792 2.1392 5.67199 2.03435C5.6073 2.00977 5.54386 1.99838 5.48168 2.00019C5.39255 2.00272 5.30377 2.00308 5.21535 2.00127C4.93213 1.99549 4.66993 2.04936 4.42876 2.16289Z" fill="#E15B51"/>
<path d="M4.31563 6.16913C4.48222 6.13876 4.70865 6.16153 4.68331 6.38769C4.83912 6.48205 4.88926 6.60082 4.97121 6.74834C5.27096 7.28633 6.06672 7.09381 6.48886 6.85301C7.03068 6.54442 7.61995 5.85946 7.2059 5.21516C7.14408 5.11899 7.09124 5.04017 7.04739 4.97871C7.0392 4.96729 7.03363 4.95419 7.0311 4.94034C7.02856 4.92649 7.02912 4.91225 7.03274 4.89865C7.03635 4.88505 7.04292 4.87242 7.05199 4.86169C7.06105 4.85096 7.07237 4.8424 7.08513 4.83661L7.20967 4.78021L7.01774 4.80462C7.00527 4.80605 6.99265 4.80513 6.98054 4.80191C6.90327 4.78021 6.85259 4.73032 6.82851 4.65222C6.67827 4.90314 6.55373 5.07922 6.45489 5.18045C6.04947 5.59588 5.56928 5.89507 5.01434 6.07802C4.80354 6.14743 4.59813 6.15774 4.38572 6.14743C4.36271 6.14635 4.33935 6.15358 4.31563 6.16913Z" fill="#C4463B"/>
</svg>
